<svg width="30" height="55" viewBox="0 0 30 55" fill="none" xmlns="http://www.w3.org/2000/svg">
<g filter="url(#filter0_d_4_944)">
<path fill-rule="evenodd" clip-rule="evenodd" d="M15 45C18.866 45 22 41.866 22 38C22 34.134 18.866 31 15 31C11.134 31 8 34.134 8 38C8 41.866 11.134 45 15 45Z" fill="#FF7A00"/>
<path d="M15 47C19.9706 47 24 42.9706 24 38C24 33.0294 19.9706 29 15 29C10.0294 29 6 33.0294 6 38C6 42.9706 10.0294 47 15 47Z" stroke="white" stroke-width="4"/>
</g>
<path d="M15 17.5C19.1421 17.5 22.5 14.1421 22.5 10C22.5 5.85786 19.1421 2.5 15 2.5C10.8579 2.5 7.5 5.85786 7.5 10C7.5 14.1421 10.8579 17.5 15 17.5Z" fill="#FF7A00" stroke="#3D003E" stroke-width="5"/>
<path d="M15 18V28.7568" stroke="#3D003E" stroke-width="2" stroke-linecap="round" stroke-linejoin="round"/>
<defs>
<filter id="filter0_d_4_944" x="0" y="25" width="30" height="30" filterUnits="userSpaceOnUse" color-interpolation-filters="sRGB">
<feFlood flood-opacity="0" result="BackgroundImageFix"/>
<feColorMatrix in="SourceAlpha" type="matrix" values="0 0 0 0 0 0 0 0 0 0 0 0 0 0 0 0 0 0 127 0" result="hardAlpha"/>
<feOffset dy="2"/>
<feGaussianBlur stdDeviation="2"/>
<feColorMatrix type="matrix" values="0 0 0 0 0 0 0 0 0 0 0 0 0 0 0 0 0 0 0.5 0"/>
<feBlend mode="normal" in2="BackgroundImageFix" result="effect1_dropShadow_4_944"/>
<feBlend mode="normal" in="SourceGraphic" in2="effect1_dropShadow_4_944" result="shape"/>
</filter>
</defs>
</svg>
